<?xml version="1.0" encoding="iso-8859-1"?>
<!-- Generator: Adobe Illustrator 15.0.2, SVG Export Plug-In . SVG Version: 6.00 Build 0)  -->
<!DOCTYPE svg PUBLIC "-//W3C//DTD SVG 1.1//EN" "http://www.w3.org/Graphics/SVG/1.1/DTD/svg11.dtd">
<svg version="1.1" id="Layer_1" xmlns="http://www.w3.org/2000/svg" xmlns:xlink="http://www.w3.org/1999/xlink" x="0px" y="0px"
	 width="20.16px" height="20.16px" viewBox="0 0 20.16 20.16" style="enable-background:new 0 0 20.16 20.16;" xml:space="preserve"
	>
<path style="fill:#EEA220;" d="M17.542,9.331H11.08v0.038c0.146,0.204,0.25,0.441,0.25,0.712s-0.104,0.507-0.25,0.712v0.038h4.949
	c-0.37,2.958-2.889,5.251-5.949,5.251c-3.314,0-6-2.688-6-6.001c0-3.313,2.687-6,6-6c2.885,0,5.292,2.036,5.868,4.75h1.52
	c-0.597-3.546-3.672-6.25-7.388-6.25c-4.142,0-7.5,3.358-7.5,7.5c0,4.142,3.358,7.5,7.5,7.5s7.5-3.357,7.5-7.5
	C17.58,9.828,17.567,9.577,17.542,9.331z"/>
</svg>
