<?xml version="1.0" encoding="iso-8859-1"?>
<!-- Generator: Adobe Illustrator 15.0.2, SVG Export Plug-In . SVG Version: 6.00 Build 0)  -->
<!DOCTYPE svg PUBLIC "-//W3C//DTD SVG 1.1//EN" "http://www.w3.org/Graphics/SVG/1.1/DTD/svg11.dtd">
<svg version="1.1" id="Layer_1" xmlns="http://www.w3.org/2000/svg" xmlns:xlink="http://www.w3.org/1999/xlink" x="0px" y="0px"
	 width="20.16px" height="20.16px" viewBox="0 0 20.16 20.16" style="enable-background:new 0 0 20.16 20.16;" xml:space="preserve"
	>
<path style="fill:#231F20;" d="M18.365,8.129l-1.047-2.527l0.673-1.217l-2.216-2.216l-1.216,0.674l-2.527-1.048l-0.384-1.336H8.513
	L8.129,1.795L5.602,2.843L4.385,2.169L2.169,4.385l0.673,1.217L1.795,8.129L0.459,8.513v3.133l1.335,0.385l1.048,2.527l-0.673,1.217
	l2.215,2.215l1.217-0.672l2.528,1.047l0.384,1.336h3.134l0.384-1.336l2.528-1.047l1.216,0.672l2.216-2.215l-0.673-1.217l1.047-2.527
	l1.336-0.385V8.513L18.365,8.129z M10.08,18.08c-4.418,0-8-3.582-8-8c0-4.418,3.582-8,8-8s8,3.582,8,8
	C18.08,14.498,14.499,18.08,10.08,18.08z"/>
</svg>
