<?xml version="1.0" encoding="iso-8859-1"?>
<!-- Generator: Adobe Illustrator 15.0.2, SVG Export Plug-In . SVG Version: 6.00 Build 0)  -->
<!DOCTYPE svg PUBLIC "-//W3C//DTD SVG 1.1//EN" "http://www.w3.org/Graphics/SVG/1.1/DTD/svg11.dtd">
<svg version="1.1" id="Layer_1" xmlns="http://www.w3.org/2000/svg" xmlns:xlink="http://www.w3.org/1999/xlink" x="0px" y="0px"
	 width="20.16px" height="20.16px" viewBox="0 0 20.16 20.16" style="enable-background:new 0 0 20.16 20.16;" xml:space="preserve"
	>
<g>
	<path style="fill:#231F20;" d="M18.365,8.129l-1.047-2.527l0.673-1.217l-2.216-2.216l-1.216,0.674l-2.527-1.048l-0.384-1.336H8.513
		L8.129,1.795L5.602,2.843L4.385,2.169L2.169,4.385l0.673,1.217L1.795,8.129L0.459,8.513v3.133l1.335,0.385l1.048,2.527
		l-0.673,1.217l2.215,2.215l1.217-0.672l2.528,1.047l0.384,1.336h3.134l0.384-1.336l2.528-1.047l1.216,0.672l2.216-2.215
		l-0.673-1.217l1.047-2.527l1.336-0.385V8.513L18.365,8.129z M10.08,18.08c-4.418,0-8-3.582-8-8c0-4.418,3.582-8,8-8s8,3.582,8,8
		C18.08,14.498,14.499,18.08,10.08,18.08z"/>
	<path style="fill:#231F20;" d="M10.33,4.593v10.975c2.92-0.133,5.25-2.533,5.25-5.488C15.58,7.127,13.25,4.725,10.33,4.593z
		 M11.831,13.658V6.503c1.33,0.646,2.249,1.998,2.249,3.577C14.08,11.658,13.16,13.012,11.831,13.658z"/>
	<path style="fill:#231F20;" d="M4.58,10.081c0,0.257,0.04,0.503,0.074,0.75h1.979l-1.22,2.113c0.281,0.457,0.628,0.865,1.028,1.221
		l1.889-3.273v4.373c0.478,0.16,0.974,0.281,1.5,0.305V4.593C6.91,4.725,4.58,7.127,4.58,10.081z M6.153,9.331
		C6.392,8.08,7.216,7.043,8.33,6.503v2.827H6.153z"/>
	<path style="fill:#DD8500;" d="M17.542,9.331H11.08v0.038c0.146,0.204,0.25,0.441,0.25,0.712s-0.104,0.507-0.25,0.712v0.038h4.949
		c-0.37,2.958-2.889,5.251-5.949,5.251c-3.314,0-6-2.688-6-6.001c0-3.313,2.687-6,6-6c2.885,0,5.292,2.036,5.868,4.75h1.52
		c-0.597-3.546-3.672-6.25-7.388-6.25c-4.142,0-7.5,3.358-7.5,7.5c0,4.142,3.358,7.5,7.5,7.5s7.5-3.357,7.5-7.5
		C17.58,9.828,17.567,9.577,17.542,9.331z"/>
</g>
</svg>
